<svg width="64" height="64" viewBox="0 0 64 64" fill="none" xmlns="http://www.w3.org/2000/svg" shape-rendering="geometricPrecision">
    <path
        d="M11.7332 46.9334H8.99542L12.9776 23.7867H16.3376L21.0665 42.9512H21.3154L32.2665 23.7867H35.751L31.8932 46.9334H29.1554L32.2665 29.3867H31.8932L21.8132 46.9334H19.1999L14.9688 29.3867H14.5954L11.7332 46.9334Z"
        fill="#C6FFFB" />
    <path d="M55.0045 23.7867H37.6176V26.2756H44.9599V46.9334H47.6976V26.2756H55.0045V23.7867Z"
        fill="#C6FFFB" />
    <path d="M37.8665 23.7868H35.6265L35.2532 26.2757H37.8665V23.7868Z" fill="#C6FFFB" />
    <path
        d="M45.9589 18.5945L42.1058 17.1472C41.7756 17.0244 41.4099 17.0422 41.0955 17.2006L40.1881 17.654C39.9686 17.7649 39.9528 18.0718 40.1584 18.2045L43.0626 20.0755L41.1153 21.0714L39.9647 20.5586C39.7927 20.4814 39.593 20.4854 39.425 20.5705L38.7884 20.8893C38.6045 20.9823 38.5551 21.2219 38.6895 21.3783L40.1347 23.0672C40.2553 23.2078 40.4313 23.289 40.6151 23.289H43.3374C43.4363 23.289 43.5331 23.2652 43.6201 23.2217L49.0153 20.521C49.9346 20.0597 50.6463 19.2677 51.0081 18.3035C51.1959 17.8045 50.8262 17.2699 50.2924 17.2699H49.1577C48.7583 17.2699 48.3629 17.365 48.0071 17.5471L45.9589 18.5945Z"
        fill="#C6FFFB" />
    <mask id="mask0_111_171" style="mask-type:alpha" maskUnits="userSpaceOnUse" x="8" y="17"
        width="48" height="30">
        <path
            d="M11.7332 46.9334H8.99542L12.9776 23.7867H16.3376L21.0665 42.9512H21.3154L32.2665 23.7867H35.751L31.8932 46.9334H29.1554L32.2665 29.3867H31.8932L21.8132 46.9334H19.1999L14.9688 29.3867H14.5954L11.7332 46.9334Z"
            fill="#0AA8E1" />
        <path d="M55.0045 23.7867H37.6176V26.2756H44.9599V46.9334H47.6976V26.2756H55.0045V23.7867Z"
            fill="#0AA8E1" />
        <path d="M37.8665 23.7868H35.6265L35.2532 26.2757H37.8665V23.7868Z" fill="#0AA8E1" />
        <path
            d="M45.9589 18.5945L42.1058 17.1472C41.7756 17.0244 41.4099 17.0422 41.0955 17.2006L40.1881 17.654C39.9686 17.7649 39.9528 18.0718 40.1584 18.2045L43.0626 20.0755L41.1153 21.0714L39.9647 20.5586C39.7927 20.4814 39.593 20.4854 39.425 20.5705L38.7884 20.8893C38.6045 20.9823 38.5551 21.2219 38.6895 21.3783L40.1347 23.0672C40.2553 23.2078 40.4313 23.289 40.6151 23.289H43.3374C43.4363 23.289 43.5331 23.2652 43.6201 23.2217L49.0153 20.521C49.9346 20.0597 50.6463 19.2677 51.0081 18.3035C51.1959 17.8045 50.8262 17.2699 50.2924 17.2699H49.1577C48.7583 17.2699 48.3629 17.365 48.0071 17.5471L45.9589 18.5945Z"
            fill="#0AA8E1" />
    </mask>
    <g mask="url(#mask0_111_171)">
        <circle cx="17.351" cy="40.0001" r="17.2444" fill="#7FFFA3" />
        <circle cx="50.4176" cy="10.8445" r="17.2444" fill="white" />
        <path
            d="M48.2433 17.7818L49.0809 17.2501L49.6434 17.2501L49.7272 17.406C49.7934 17.5291 49.8058 17.674 49.7617 17.8066C49.6853 18.0356 49.5299 18.2298 49.3232 18.3545L48.7949 18.6732C48.5769 18.8047 48.2959 18.7605 48.1288 18.5684C47.9182 18.3264 47.9725 17.9537 48.2433 17.7818Z"
            fill="#E0E0E0" />
    </g>
</svg>